<svg xmlns="http://www.w3.org/2000/svg" xmlns:xlink="http://www.w3.org/1999/xlink" width="250" zoomAndPan="magnify" viewBox="0 0 187.5 74.999997" height="100" preserveAspectRatio="xMidYMid meet" version="1.0"><defs><g/></defs><g fill="#000000" fill-opacity="1"><g transform="translate(5.126951, 41.988028)"><g><path d="M 4.921875 -7.015625 L 4.921875 -4.296875 C 4.921875 -3.421875 5.320312 -2.984375 6.125 -2.984375 C 6.738281 -2.984375 7.140625 -3.273438 7.328125 -3.859375 C 7.390625 -4.046875 7.457031 -4.171875 7.53125 -4.234375 C 7.613281 -4.296875 7.75 -4.328125 7.9375 -4.328125 L 11.234375 -4.328125 C 11.328125 -4.328125 11.40625 -4.289062 11.46875 -4.21875 C 11.539062 -4.15625 11.578125 -4.070312 11.578125 -3.96875 C 11.578125 -3.03125 11.3125 -2.242188 10.78125 -1.609375 C 9.789062 -0.429688 8.242188 0.15625 6.140625 0.15625 C 4.492188 0.15625 3.179688 -0.203125 2.203125 -0.921875 C 1.222656 -1.648438 0.734375 -2.769531 0.734375 -4.28125 L 0.734375 -7.03125 C 0.734375 -8.5 1.234375 -9.601562 2.234375 -10.34375 C 3.234375 -11.09375 4.535156 -11.46875 6.140625 -11.46875 C 8.242188 -11.46875 9.789062 -10.875 10.78125 -9.6875 C 11.3125 -9.050781 11.578125 -8.265625 11.578125 -7.328125 C 11.578125 -7.234375 11.539062 -7.148438 11.46875 -7.078125 C 11.40625 -7.015625 11.328125 -6.984375 11.234375 -6.984375 L 7.9375 -6.984375 C 7.757812 -6.984375 7.628906 -7.015625 7.546875 -7.078125 C 7.472656 -7.140625 7.398438 -7.265625 7.328125 -7.453125 C 7.128906 -8.035156 6.726562 -8.328125 6.125 -8.328125 C 5.320312 -8.328125 4.921875 -7.890625 4.921875 -7.015625 Z M 4.921875 -7.015625 "/></g></g></g><g fill="#000000" fill-opacity="1"><g transform="translate(17.183913, 41.988028)"><g><path d="M 2.203125 -10.265625 C 3.191406 -11.066406 4.5 -11.46875 6.125 -11.46875 C 7.75 -11.46875 9.050781 -11.066406 10.03125 -10.265625 C 11.019531 -9.460938 11.515625 -8.332031 11.515625 -6.875 L 11.515625 -4.359375 C 11.515625 -2.890625 11.023438 -1.769531 10.046875 -1 C 9.078125 -0.226562 7.769531 0.15625 6.125 0.15625 C 4.476562 0.15625 3.164062 -0.226562 2.1875 -1 C 1.21875 -1.769531 0.734375 -2.890625 0.734375 -4.359375 L 0.734375 -6.875 C 0.734375 -8.34375 1.222656 -9.472656 2.203125 -10.265625 Z M 5.25 -3.3125 C 5.46875 -3.09375 5.757812 -2.984375 6.125 -2.984375 C 6.488281 -2.984375 6.773438 -3.09375 6.984375 -3.3125 C 7.203125 -3.53125 7.3125 -3.859375 7.3125 -4.296875 L 7.3125 -7.015625 C 7.3125 -7.441406 7.203125 -7.765625 6.984375 -7.984375 C 6.773438 -8.210938 6.488281 -8.328125 6.125 -8.328125 C 5.757812 -8.328125 5.46875 -8.210938 5.25 -7.984375 C 5.03125 -7.765625 4.921875 -7.441406 4.921875 -7.015625 L 4.921875 -4.296875 C 4.921875 -3.859375 5.03125 -3.53125 5.25 -3.3125 Z M 5.25 -3.3125 "/></g></g></g><g fill="#000000" fill-opacity="1"><g transform="translate(29.418427, 41.988028)"><g><path d="M 5.15625 -3.3125 L 9.625 -3.3125 C 9.75 -3.3125 9.851562 -3.265625 9.9375 -3.171875 C 10.019531 -3.085938 10.0625 -2.988281 10.0625 -2.875 L 10.0625 -0.4375 C 10.0625 -0.320312 10.019531 -0.21875 9.9375 -0.125 C 9.851562 -0.0390625 9.75 0 9.625 0 L 1.484375 0 C 1.367188 0 1.265625 -0.0390625 1.171875 -0.125 C 1.085938 -0.21875 1.046875 -0.320312 1.046875 -0.4375 L 1.046875 -10.875 C 1.046875 -10.988281 1.085938 -11.085938 1.171875 -11.171875 C 1.265625 -11.265625 1.367188 -11.3125 1.484375 -11.3125 L 4.71875 -11.3125 C 4.832031 -11.3125 4.929688 -11.265625 5.015625 -11.171875 C 5.109375 -11.085938 5.15625 -10.988281 5.15625 -10.875 Z M 5.15625 -3.3125 "/></g></g></g><g fill="#000000" fill-opacity="1"><g transform="translate(39.877478, 41.988028)"><g><path d="M 6.84375 -6.8125 L 11.296875 -6.8125 C 11.410156 -6.8125 11.507812 -6.769531 11.59375 -6.6875 C 11.6875 -6.601562 11.734375 -6.5 11.734375 -6.375 L 11.734375 -4.28125 C 11.734375 -2.863281 11.222656 -1.769531 10.203125 -1 C 9.191406 -0.226562 7.84375 0.15625 6.15625 0.15625 C 4.476562 0.15625 3.15625 -0.210938 2.1875 -0.953125 C 1.21875 -1.703125 0.734375 -2.828125 0.734375 -4.328125 L 0.734375 -7.046875 C 0.734375 -8.472656 1.226562 -9.566406 2.21875 -10.328125 C 3.207031 -11.085938 4.523438 -11.46875 6.171875 -11.46875 C 7.828125 -11.46875 9.164062 -11.117188 10.1875 -10.421875 C 11.21875 -9.734375 11.734375 -8.882812 11.734375 -7.875 C 11.734375 -7.769531 11.695312 -7.679688 11.625 -7.609375 C 11.550781 -7.546875 11.46875 -7.515625 11.375 -7.515625 L 7.796875 -7.515625 C 7.585938 -7.515625 7.429688 -7.570312 7.328125 -7.6875 C 7.117188 -7.96875 6.957031 -8.128906 6.84375 -8.171875 C 6.601562 -8.273438 6.378906 -8.328125 6.171875 -8.328125 C 5.335938 -8.328125 4.921875 -7.921875 4.921875 -7.109375 L 4.921875 -4.359375 C 4.921875 -3.441406 5.363281 -2.984375 6.25 -2.984375 C 7.15625 -2.984375 7.609375 -3.375 7.609375 -4.15625 L 6.84375 -4.15625 C 6.726562 -4.15625 6.625 -4.195312 6.53125 -4.28125 C 6.445312 -4.363281 6.40625 -4.46875 6.40625 -4.59375 L 6.40625 -6.375 C 6.40625 -6.5 6.445312 -6.601562 6.53125 -6.6875 C 6.625 -6.769531 6.726562 -6.8125 6.84375 -6.8125 Z M 6.84375 -6.8125 "/></g></g></g><g fill="#000000" fill-opacity="1"><g transform="translate(52.321809, 41.988028)"><g><path d="M 4.59375 -11.3125 L 8.09375 -11.3125 C 8.476562 -11.3125 8.722656 -11.132812 8.828125 -10.78125 L 12.421875 -0.46875 C 12.429688 -0.4375 12.4375 -0.382812 12.4375 -0.3125 C 12.4375 -0.238281 12.398438 -0.164062 12.328125 -0.09375 C 12.265625 -0.03125 12.179688 0 12.078125 0 L 9.09375 0 C 8.769531 0 8.5625 -0.132812 8.46875 -0.40625 L 8.078125 -1.46875 L 4.609375 -1.46875 L 4.21875 -0.40625 C 4.125 -0.132812 3.914062 0 3.59375 0 L 0.59375 0 C 0.5 0 0.414062 -0.03125 0.34375 -0.09375 C 0.28125 -0.164062 0.25 -0.238281 0.25 -0.3125 C 0.25 -0.382812 0.253906 -0.4375 0.265625 -0.46875 L 3.859375 -10.78125 C 3.953125 -11.132812 4.195312 -11.3125 4.59375 -11.3125 Z M 5.421875 -4.625 L 7.25 -4.625 L 6.328125 -7.625 Z M 5.421875 -4.625 "/></g></g></g><g fill="#000000" fill-opacity="1"><g transform="translate(64.992107, 41.988028)"><g><path d="M 0.921875 -11.3125 L 10.390625 -11.3125 C 10.503906 -11.3125 10.601562 -11.265625 10.6875 -11.171875 C 10.78125 -11.085938 10.828125 -10.988281 10.828125 -10.875 L 10.828125 -8.265625 C 10.828125 -8.148438 10.78125 -8.046875 10.6875 -7.953125 C 10.601562 -7.867188 10.503906 -7.828125 10.390625 -7.828125 L 7.703125 -7.828125 L 7.703125 -0.4375 C 7.703125 -0.320312 7.660156 -0.21875 7.578125 -0.125 C 7.492188 -0.0390625 7.390625 0 7.265625 0 L 4.03125 0 C 3.914062 0 3.816406 -0.0390625 3.734375 -0.125 C 3.648438 -0.21875 3.609375 -0.320312 3.609375 -0.4375 L 3.609375 -7.828125 L 0.921875 -7.828125 C 0.804688 -7.828125 0.703125 -7.867188 0.609375 -7.953125 C 0.523438 -8.046875 0.484375 -8.148438 0.484375 -8.265625 L 0.484375 -10.875 C 0.484375 -10.988281 0.523438 -11.085938 0.609375 -11.171875 C 0.703125 -11.265625 0.804688 -11.3125 0.921875 -11.3125 Z M 0.921875 -11.3125 "/></g></g></g><g fill="#000000" fill-opacity="1"><g transform="translate(76.290461, 41.988028)"><g><path d="M 4.921875 -3.15625 L 9.90625 -3.15625 C 10.019531 -3.15625 10.117188 -3.109375 10.203125 -3.015625 C 10.296875 -2.929688 10.34375 -2.832031 10.34375 -2.71875 L 10.34375 -0.4375 C 10.34375 -0.320312 10.296875 -0.21875 10.203125 -0.125 C 10.117188 -0.0390625 10.019531 0 9.90625 0 L 1.484375 0 C 1.367188 0 1.265625 -0.0390625 1.171875 -0.125 C 1.085938 -0.21875 1.046875 -0.320312 1.046875 -0.4375 L 1.046875 -10.875 C 1.046875 -10.988281 1.085938 -11.085938 1.171875 -11.171875 C 1.265625 -11.265625 1.367188 -11.3125 1.484375 -11.3125 L 9.78125 -11.3125 C 9.894531 -11.3125 9.992188 -11.265625 10.078125 -11.171875 C 10.160156 -11.085938 10.203125 -10.988281 10.203125 -10.875 L 10.203125 -8.59375 C 10.203125 -8.476562 10.160156 -8.375 10.078125 -8.28125 C 9.992188 -8.195312 9.894531 -8.15625 9.78125 -8.15625 L 4.921875 -8.15625 L 4.921875 -7.140625 L 9.421875 -7.140625 C 9.535156 -7.140625 9.632812 -7.09375 9.71875 -7 C 9.8125 -6.914062 9.859375 -6.816406 9.859375 -6.703125 L 9.859375 -4.609375 C 9.859375 -4.484375 9.8125 -4.378906 9.71875 -4.296875 C 9.632812 -4.210938 9.535156 -4.171875 9.421875 -4.171875 L 4.921875 -4.171875 Z M 4.921875 -3.15625 "/></g></g></g><g fill="#000000" fill-opacity="1"><g transform="translate(87.508121, 41.988028)"><g/></g></g><g fill="#000000" fill-opacity="1"><g transform="translate(92.188872, 41.988028)"><g><path d="M 1.796875 -8.546875 C 1.796875 -9.359375 2.125 -10.050781 2.78125 -10.625 C 3.445312 -11.195312 4.394531 -11.484375 5.625 -11.484375 C 6.863281 -11.484375 7.804688 -11.195312 8.453125 -10.625 C 9.097656 -10.050781 9.421875 -9.363281 9.421875 -8.5625 C 9.421875 -7.96875 9.25 -7.441406 8.90625 -6.984375 C 8.570312 -6.523438 8.050781 -6.09375 7.34375 -5.6875 L 8.5625 -4.421875 C 8.832031 -4.703125 9.097656 -5.144531 9.359375 -5.75 C 9.398438 -5.851562 9.503906 -5.90625 9.671875 -5.90625 L 12.109375 -5.90625 C 12.203125 -5.90625 12.273438 -5.878906 12.328125 -5.828125 C 12.378906 -5.773438 12.40625 -5.707031 12.40625 -5.625 C 12.40625 -5.3125 12.1875 -4.820312 11.75 -4.15625 C 11.3125 -3.488281 10.890625 -2.9375 10.484375 -2.5 L 12.40625 -0.5 C 12.46875 -0.4375 12.5 -0.363281 12.5 -0.28125 C 12.5 -0.195312 12.46875 -0.128906 12.40625 -0.078125 C 12.351562 -0.0234375 12.289062 0 12.21875 0 L 8.921875 0 C 8.785156 0 8.648438 -0.0507812 8.515625 -0.15625 L 8.078125 -0.546875 C 7.273438 -0.0351562 6.226562 0.21875 4.9375 0.21875 C 3.644531 0.21875 2.601562 -0.078125 1.8125 -0.671875 C 1.03125 -1.265625 0.640625 -2.125 0.640625 -3.25 C 0.640625 -4.507812 1.34375 -5.53125 2.75 -6.3125 C 2.113281 -6.988281 1.796875 -7.734375 1.796875 -8.546875 Z M 4.171875 -3.46875 C 4.171875 -3.164062 4.269531 -2.925781 4.46875 -2.75 C 4.664062 -2.582031 4.929688 -2.5 5.265625 -2.5 C 5.597656 -2.5 5.875 -2.566406 6.09375 -2.703125 L 4.671875 -4.171875 C 4.335938 -4.003906 4.171875 -3.769531 4.171875 -3.46875 Z M 6.3125 -8.4375 C 6.3125 -8.601562 6.253906 -8.738281 6.140625 -8.84375 C 6.035156 -8.957031 5.898438 -9.015625 5.734375 -9.015625 C 5.566406 -9.015625 5.421875 -8.957031 5.296875 -8.84375 C 5.179688 -8.726562 5.125 -8.566406 5.125 -8.359375 C 5.125 -8.148438 5.269531 -7.910156 5.5625 -7.640625 C 6.0625 -7.867188 6.3125 -8.132812 6.3125 -8.4375 Z M 6.3125 -8.4375 "/></g></g></g><g fill="#000000" fill-opacity="1"><g transform="translate(105.488656, 41.988028)"><g/></g></g><g fill="#000000" fill-opacity="1"><g transform="translate(110.169408, 41.988028)"><g><path d="M 8.140625 -11.3125 L 11.3125 -11.3125 C 11.425781 -11.3125 11.523438 -11.265625 11.609375 -11.171875 C 11.703125 -11.085938 11.75 -10.988281 11.75 -10.875 L 11.75 -0.4375 C 11.75 -0.320312 11.703125 -0.21875 11.609375 -0.125 C 11.523438 -0.0390625 11.425781 0 11.3125 0 L 8.140625 0 C 8.023438 0 7.921875 -0.0390625 7.828125 -0.125 C 7.742188 -0.21875 7.703125 -0.320312 7.703125 -0.4375 L 7.703125 -3.921875 L 5.09375 -3.921875 L 5.09375 -0.4375 C 5.09375 -0.320312 5.046875 -0.21875 4.953125 -0.125 C 4.867188 -0.0390625 4.769531 0 4.65625 0 L 1.484375 0 C 1.367188 0 1.265625 -0.0390625 1.171875 -0.125 C 1.085938 -0.207031 1.046875 -0.3125 1.046875 -0.4375 L 1.046875 -10.875 C 1.046875 -10.988281 1.085938 -11.085938 1.171875 -11.171875 C 1.265625 -11.265625 1.367188 -11.3125 1.484375 -11.3125 L 4.65625 -11.3125 C 4.769531 -11.3125 4.867188 -11.265625 4.953125 -11.171875 C 5.046875 -11.085938 5.09375 -10.988281 5.09375 -10.875 L 5.09375 -7.484375 L 7.703125 -7.484375 L 7.703125 -10.875 C 7.703125 -10.988281 7.742188 -11.085938 7.828125 -11.171875 C 7.921875 -11.265625 8.023438 -11.3125 8.140625 -11.3125 Z M 8.140625 -11.3125 "/></g></g></g><g fill="#000000" fill-opacity="1"><g transform="translate(122.952689, 41.988028)"><g><path d="M 2.203125 -10.265625 C 3.191406 -11.066406 4.5 -11.46875 6.125 -11.46875 C 7.75 -11.46875 9.050781 -11.066406 10.03125 -10.265625 C 11.019531 -9.460938 11.515625 -8.332031 11.515625 -6.875 L 11.515625 -4.359375 C 11.515625 -2.890625 11.023438 -1.769531 10.046875 -1 C 9.078125 -0.226562 7.769531 0.15625 6.125 0.15625 C 4.476562 0.15625 3.164062 -0.226562 2.1875 -1 C 1.21875 -1.769531 0.734375 -2.890625 0.734375 -4.359375 L 0.734375 -6.875 C 0.734375 -8.34375 1.222656 -9.472656 2.203125 -10.265625 Z M 5.25 -3.3125 C 5.46875 -3.09375 5.757812 -2.984375 6.125 -2.984375 C 6.488281 -2.984375 6.773438 -3.09375 6.984375 -3.3125 C 7.203125 -3.53125 7.3125 -3.859375 7.3125 -4.296875 L 7.3125 -7.015625 C 7.3125 -7.441406 7.203125 -7.765625 6.984375 -7.984375 C 6.773438 -8.210938 6.488281 -8.328125 6.125 -8.328125 C 5.757812 -8.328125 5.46875 -8.210938 5.25 -7.984375 C 5.03125 -7.765625 4.921875 -7.441406 4.921875 -7.015625 L 4.921875 -4.296875 C 4.921875 -3.859375 5.03125 -3.53125 5.25 -3.3125 Z M 5.25 -3.3125 "/></g></g></g><g fill="#000000" fill-opacity="1"><g transform="translate(135.187203, 41.988028)"><g><path d="M 5.15625 -3.3125 L 9.625 -3.3125 C 9.75 -3.3125 9.851562 -3.265625 9.9375 -3.171875 C 10.019531 -3.085938 10.0625 -2.988281 10.0625 -2.875 L 10.0625 -0.4375 C 10.0625 -0.320312 10.019531 -0.21875 9.9375 -0.125 C 9.851562 -0.0390625 9.75 0 9.625 0 L 1.484375 0 C 1.367188 0 1.265625 -0.0390625 1.171875 -0.125 C 1.085938 -0.21875 1.046875 -0.320312 1.046875 -0.4375 L 1.046875 -10.875 C 1.046875 -10.988281 1.085938 -11.085938 1.171875 -11.171875 C 1.265625 -11.265625 1.367188 -11.3125 1.484375 -11.3125 L 4.71875 -11.3125 C 4.832031 -11.3125 4.929688 -11.265625 5.015625 -11.171875 C 5.109375 -11.085938 5.15625 -10.988281 5.15625 -10.875 Z M 5.15625 -3.3125 "/></g></g></g><g fill="#000000" fill-opacity="1"><g transform="translate(145.646254, 41.988028)"><g><path d="M 1.484375 -11.3125 L 6.140625 -11.3125 C 7.710938 -11.3125 9.003906 -10.921875 10.015625 -10.140625 C 11.035156 -9.359375 11.546875 -8.265625 11.546875 -6.859375 L 11.546875 -4.453125 C 11.546875 -2.992188 11.050781 -1.882812 10.0625 -1.125 C 9.070312 -0.375 7.769531 0 6.15625 0 L 1.484375 0 C 1.367188 0 1.265625 -0.0390625 1.171875 -0.125 C 1.085938 -0.21875 1.046875 -0.320312 1.046875 -0.4375 L 1.046875 -10.875 C 1.046875 -10.988281 1.085938 -11.085938 1.171875 -11.171875 C 1.265625 -11.265625 1.367188 -11.3125 1.484375 -11.3125 Z M 5.09375 -8.15625 L 5.09375 -3.15625 L 6.140625 -3.15625 C 6.503906 -3.15625 6.796875 -3.265625 7.015625 -3.484375 C 7.234375 -3.703125 7.34375 -4.023438 7.34375 -4.453125 L 7.34375 -6.859375 C 7.34375 -7.722656 6.941406 -8.15625 6.140625 -8.15625 Z M 5.09375 -8.15625 "/></g></g></g><g fill="#000000" fill-opacity="1"><g transform="translate(157.913045, 41.988028)"><g><path d="M 7.75 -11.3125 L 10.921875 -11.3125 C 11.035156 -11.3125 11.132812 -11.265625 11.21875 -11.171875 C 11.3125 -11.085938 11.359375 -10.988281 11.359375 -10.875 L 11.359375 -4.375 C 11.359375 -2.863281 10.890625 -1.726562 9.953125 -0.96875 C 9.015625 -0.21875 7.738281 0.15625 6.125 0.15625 C 4.519531 0.15625 3.242188 -0.21875 2.296875 -0.96875 C 1.359375 -1.71875 0.890625 -2.851562 0.890625 -4.375 L 0.890625 -10.875 C 0.890625 -10.988281 0.929688 -11.085938 1.015625 -11.171875 C 1.097656 -11.265625 1.203125 -11.3125 1.328125 -11.3125 L 4.484375 -11.3125 C 4.609375 -11.3125 4.710938 -11.265625 4.796875 -11.171875 C 4.878906 -11.085938 4.921875 -10.988281 4.921875 -10.875 L 4.921875 -4.328125 C 4.921875 -3.492188 5.316406 -3.078125 6.109375 -3.078125 C 6.910156 -3.078125 7.3125 -3.492188 7.3125 -4.328125 L 7.3125 -10.875 C 7.3125 -10.988281 7.351562 -11.085938 7.4375 -11.171875 C 7.53125 -11.265625 7.632812 -11.3125 7.75 -11.3125 Z M 7.75 -11.3125 "/></g></g></g><g fill="#000000" fill-opacity="1"><g transform="translate(170.147559, 41.988028)"><g><path d="M 1.484375 -11.3125 L 6.296875 -11.3125 C 7.847656 -11.3125 9.0625 -10.976562 9.9375 -10.3125 C 10.8125 -9.644531 11.25 -8.65625 11.25 -7.34375 C 11.25 -6.039062 10.8125 -5.078125 9.9375 -4.453125 C 9.070312 -3.828125 7.859375 -3.515625 6.296875 -3.515625 L 5.25 -3.515625 L 5.25 -0.4375 C 5.25 -0.320312 5.207031 -0.21875 5.125 -0.125 C 5.039062 -0.0390625 4.9375 0 4.8125 0 L 1.484375 0 C 1.367188 0 1.265625 -0.0390625 1.171875 -0.125 C 1.085938 -0.21875 1.046875 -0.320312 1.046875 -0.4375 L 1.046875 -10.875 C 1.046875 -10.988281 1.085938 -11.085938 1.171875 -11.171875 C 1.265625 -11.265625 1.367188 -11.3125 1.484375 -11.3125 Z M 5.171875 -8.296875 L 5.171875 -6.515625 L 6.296875 -6.515625 C 6.492188 -6.515625 6.664062 -6.585938 6.8125 -6.734375 C 6.96875 -6.878906 7.046875 -7.082031 7.046875 -7.34375 C 7.046875 -7.613281 6.984375 -7.835938 6.859375 -8.015625 C 6.742188 -8.203125 6.554688 -8.296875 6.296875 -8.296875 Z M 5.171875 -8.296875 "/></g></g></g></svg>